<svg xmlns="http://www.w3.org/2000/svg" viewBox="0 0 471 472" fill="none"><path d="m79 181 19 54c-8.07 3.96-6.5 11.59-4.28 19 3.76 12.53 15.39 31.38 27.28 37-3.44 11.85-4.25 18.86-5.09 31l-.91 12c-.03 16.87 2.85 32.15 8.46 48 3.05 8.61 8.69 24.49 18.54 27.16 12.13 3.29 20.78-14.53 28-15.75 3.32-.57 13.13 3.17 17 4.09 8.24 1.94 16.64 1.93 25 2.55 2.67.2 4.57.66 6.61 2.52 5.32 4.84 9.81 29.94 26.39 21.39 2.12-1.1 5.14-2.89 7-4.35 4.25-3.35 8.59-8.43 12.08-12.61 13.96-16.72 21.68-32.07 27.5-53l4.5-20c.39-2.41.98-9.16 1.94-10.79 1.9-3.19 7.63-4.73 10.98-6.22 6.07-2.7 11.78-6.39 17-10.51 5.42-4.27 13.47-12.66 15.15-19.48 1.01-4.07 1.55-7.42-2.15-10l28.29-35c1.9-2.24 9.85-11.9 11.88-12.68 3.16-1.21 5.76 1.75 7.83 3.7 3.4 3.19 10.1 10.15 15 10.2 4.85.05 14.9-7.92 19-10.78 7.3-5.09 10.83-5.47 19-7.86 4.07-1.19 9.49-2.32 11.26-6.63 1.7-4.13-1.46-19.86-1.22-25.95.28-7.04 5.95-24.45 2.94-29.9-3.07-5.55-13.63-6.72-17.76-9.91-5.3-4.11-3.5-12.97-14.22-12.01-5.4.48-9.42 3.09-15 2.63-6.41-.52-21.47-7.02-26.73-3.07-3.96 2.98-8.39 18.25-13.48 24.26-3.9 4.6-15.04 13.73-16.19 19-1.09 4.99 4.07 11.18 6.82 15 2.44 3.38 8.11 10.67 9.74 14l4.84 15c-4.58 2.27-7.47 6.3-10.97 10l-19.31 21c-2.66 3.02-9.9 11.31-13.72 11.81l-10-2.01-20-2.34c-3.41-.32-5.96.48-8.9-1.81-2.9-2.27-6.09-8.3-7.85-11.65-3.07-5.86-7.98-14.93-10.16-21-2.48-6.9-2.11-9.06-.63-16 .48-2.25 1.43-5.36-.93-6.87-1.87-1.33-5.46-.34-7.53 0L244 213c0-20.82.42-35.31-14.29-52-3.54-4.01-14.36-13.22-19.97-8.1-5.34 4.87 5.36 8.93 3.61 17.1-1.49 6.94-12.86 21.52-17.77 26.96L161 228.01c-4.37 4.26-9.37 8.42-12 13.99-17.79-5.94-20.63-8-40-8l-7.14-18L86 177c4.51-.85 20.78-3.8 23.4-6.65 1.93-2.1 2.12-10.39 2.01-13.35-.46-12.4-1.11-16.53 1.96-29 1.17-4.71 4.07-13.46 1.61-17.9-3.01-5.43-12.36-6.3-16.71-10.49-4.17-4.02-3.78-10.77-9.36-12.3C82.8 85.65 75.04 89.6 69 88.47c-5.93-1.11-21.03-7.65-25.96-5.86-5.91 2.15-10.82 17.02-14.67 22.39-4.62 6.44-19.24 15.49-20.11 22-.98 7.38 9.43 19.46 13.29 26 5.7 9.66 3.54 14.46 6.54 18.77 3.23 4.66 7.28 1.9 11.91 4.83 4.04 2.55 10.86 11.31 15 13.38 7.24 3.6 17.88-5.23 24-8.98" fill="#afafaf"/></svg>
