<svg xmlns="http://www.w3.org/2000/svg" viewBox="0 0 400 400"><mask id="a"><path d="M0 0h400v400h-800" fill="#fff"/><path d="M325.93 299.7 310.63 93l-45.29-5.09c-13.82 49.18-39.32 113.09-61.5 144.59-3.91 5.7-7.5 8.41-10.82 8.41-3.59 0-6.89-3.32-9.29-9.61-11.71-30-27.89-95.1-33.6-140.1l-44.7-2.11L68.84 295.2l49.5 8.1 12.89-116.71c2.7 16.5 9.61 44.71 13.5 57 10.79 34.5 28.2 48.91 45.9 48.91 12.89 0 26.1-7.5 36.89-20.41 15-17.68 32.11-55.18 44.41-84.89l2.7 113.39z"/></mask><circle mask="url(#a)" cx="200" cy="200" r="200" fill="#afafaf"/></svg>
