<!-- Collection: "Symbols Nerd Font", Author: Ryan L McIntyre -->
<svg xmlns="http://www.w3.org/2000/svg" viewBox="-10 0 2068 2048"><path d="M684 1136V912h228v224zm228 229v-229h224v229zm0-453V683h224v229zM684 683V453h228v230zm0 912v-230h228v230zM0 229v1590q0 95 67 162t163 67h1588q96 0 164-67 66-66 66-162V229q0-96-66-162-68-67-164-67H230Q134 0 67 67T0 229m1706 1136v230h-228v-230zm0-453v224h-228V912zm0-459v230h-228V453zM912 229v224h224V229h230v224h-230v230h230v229h-230v224h230v229h-230v230h230v224h-230v-224H912v224H230V229z" fill="#afafaf"/></svg>
