<!--Collection: "Fluent System", Author: Microsoft-->
<svg viewBox="0 0 24 24" fill="none" xmlns="http://www.w3.org/2000/svg"><path d="M11.502 1.044c5.774 0 10.456 4.682 10.456 10.457q0 .413-.032.818a6.8 6.8 0 0 0-1.54-1.1 9 9 0 0 0-.244-1.81h-3.51q.05.525.075 1.067-.81.065-1.557.31-.026-.706-.097-1.377H7.95a19.8 19.8 0 0 0 .141 5.228h2.884a6.8 6.8 0 0 0-.44 1.568H8.428c.626 2.316 1.675 3.904 2.775 4.15a6.8 6.8 0 0 0 1.114 1.57q-.404.032-.816.032c-5.775 0-10.456-4.682-10.456-10.456 0-5.775 4.68-10.457 10.456-10.457M6.806 16.206H3.96a8.92 8.92 0 0 0 4.28 3.565c-.546-.857-.997-1.93-1.328-3.153zm-.434-6.797h-3.51l-.005.018a9 9 0 0 0-.243 2.074c0 1.104.201 2.16.569 3.136H6.5a21.8 21.8 0 0 1-.128-5.228M8.241 3.23l-.024.01a8.92 8.92 0 0 0-4.818 4.6h3.187c.328-1.832.9-3.427 1.655-4.61m3.26-.617-.12.005c-1.323.121-2.601 2.214-3.195 5.223h6.631c-.592-3-1.864-5.09-3.183-5.222zm3.263.617.111.182c.7 1.163 1.231 2.69 1.542 4.43h3.187a8.92 8.92 0 0 0-4.536-4.485zM11.5 17.25a5.75 5.75 0 1 0 11.5 0 5.75 5.75 0 0 0-11.5 0m8.886-3.66c.289 0 .523.235.523.524v2.09a.523.523 0 0 1-.523.523h-2.09a.523.523 0 0 1 0-1.045h1.045a2.61 2.61 0 0 0-2.091-1.046 2.61 2.61 0 0 0-2.119 1.084.523.523 0 0 1-.847-.614 3.66 3.66 0 0 1 2.966-1.515c1.024 0 1.95.42 2.614 1.098v-.575c0-.289.234-.523.522-.523m-5.75 6.22v.576a.523.523 0 0 1-1.045 0v-2.09c0-.29.234-.523.523-.523h2.09a.523.523 0 0 1 0 1.045H15.16a2.61 2.61 0 0 0 2.091 1.046c.801 0 1.518-.36 1.998-.929a.523.523 0 1 1 .799.675 3.65 3.65 0 0 1-2.797 1.3 3.65 3.65 0 0 1-2.614-1.1" fill="#afafaf"/></svg>
