<!--Collection: "Symbols Nerd Font", Author: Ryan L McIntyre-->
<!--Author: Freepix-->
<svg xmlns="http://www.w3.org/2000/svg" viewBox="0 0 46 46" fill="none"><defs><path id="a" d="M10.029 19v1h-7.55v3.023h1.557v19.51q0 1.253.885 2.138t2.072.884h15.048q1.188 0 2.072-.884t.885-2.139v-19.51h1.557V20h-7.524v-1zm-3.036 4.501h15.048v19.51H6.993zm3.036 3.036v13.517h3.01V26.537zm5.966 0v13.517h3.036V26.537z"/></defs><mask id="b"><path d="M0 0h46v46h-92" fill="#fff"/><use href="#a" fill="#000" stroke="#000" stroke-width="7" stroke-linejoin="round"/></mask><path fill="#afafaf" mask="url(#b)" d="M12 12h22v22H12Zm21 24h6v3h-6Zm-9 0h6v3h-6Zm-8.5 0h6v3h-6ZM7 36h6v3H7ZM33 7h6v3h-6Zm-9 0h6v3h-6Zm-8.5 0h6v3h-6ZM7 7h6v3H7ZM0 7h5v3H0v2h9v22H0v2h5v3H0v2h46v-2h-5v-3h5v-2h-9V12h9v-2h-5V7h5V5H0Z"/><use fill="#afafaf" href="#a"/></svg>
