<!-- Collection: "Fluent System", Author: Microsoft -->
<!--Author: Freepix-->
<svg xmlns="http://www.w3.org/2000/svg" viewBox="0 0 46 46" fill="none"><defs><path id="a" d="M3.634 24.06a.99.99 90 0 1 .98.855l.009.135-.003 17.165a.99.99 90 0 1-1.97.135l-.01-.135.003-17.165a.99.99 90 0 1 .99-.99m19.02 2.381.096-.11a.99.99 90 0 1 1.288-.097l.111.096 6.596 6.596a.99.99 90 0 1 .097 1.289l-.097.112-6.594 6.604a.99.99 90 0 1-1.497-1.288l.095-.111 4.898-4.907H9.594a.99.99 90 0 1-.98-.854l-.01-.134a.99.99 90 0 1 .855-.981l.135-.01h18.07L22.75 27.73a.99.99 90 0 1-.096-1.289l.096-.11z"/></defs><mask id="b"><path d="M0 0h46v46h-92" fill="#fff"/><use href="#a" fill="#000" stroke="#000" stroke-width="12" stroke-linejoin="round"/></mask><path fill="#afafaf" mask="url(#b)" d="M12 12h22v22H12Zm21 24h6v3h-6Zm-9 0h6v3h-6Zm-8.5 0h6v3h-6ZM7 36h6v3H7ZM33 7h6v3h-6Zm-9 0h6v3h-6Zm-8.5 0h6v3h-6ZM7 7h6v3H7ZM0 7h5v3H0v2h9v22H0v2h5v3H0v2h46v-2h-5v-3h5v-2h-9V12h9v-2h-5V7h5V5H0Z"/><use stroke="#afafaf" stroke-width="3" fill="#afafaf" href="#a"/></svg>
