<!-- Collection: "Symbols Nerd Font", Author: Ryan L McIntyre -->
<svg xmlns="http://www.w3.org/2000/svg" viewBox="-10 0 2068 2048"><path fill="#afafaf" d="M1024 24q-200 0-392 77-188 75-333.5 220.5T78 656Q0 847 0 1048q0 337 194 603 195 266 508 373 34 4 50-12t16-41v-173q-177 38-278-48-53-40-68-91-20-55-52-92-18-28-44-43l-18-15q-38-28-38-43 0-14 24-14l24-5q61 4 114 58 31 25 40 48 63 101 162 110 63 4 140-24 8-90 62-139-211-24-316-116-150-125-150-389 0-159 106-274-20-43-20-96-9-89 30-178h28q40 0 92 19 70 26 162 87 124-34 255.5-34t254.5 34q126-82 216-101 49-10 68-5 38 89 28 178 0 53-18 96 106 116 106 274 0 268-150 389-111 92-316 116 66 62 66 192v279q0 24 18 41 16 16 54 12 308-107 502-373 196-267 196-603 0-201-78-392-75-189-220.5-334.5T1416 101q-192-77-392-77"/></svg>
