<!--Author: Freepix-->
<svg xmlns="http://www.w3.org/2000/svg" viewBox="0 0 46 46" fill="none"><defs><path id="a" d="M8.51 27.528h3.004v7.007h7.007v3.003h-7.008v7.007H8.51v-7.008H1.503v-3.002H8.51Z"/></defs><mask id="b"><path d="M0 0h46v46h-92" fill="#fff"/><use href="#a" fill="#000" stroke="#000" stroke-width="7" stroke-linejoin="round"/></mask><path fill="#afafaf" mask="url(#b)" d="M12 12h22v22H12Zm21 24h6v3h-6Zm-9 0h6v3h-6Zm-8.5 0h6v3h-6ZM7 36h6v3H7ZM33 7h6v3h-6Zm-9 0h6v3h-6Zm-8.5 0h6v3h-6ZM7 7h6v3H7ZM0 7h5v3H0v2h9v22H0v2h5v3H0v2h46v-2h-5v-3h5v-2h-9V12h9v-2h-5V7h5V5H0Z"/><use fill="#afafaf" href="#a"/></svg>
