<!--Collection: "Fluent System", Author: Microsoft-->
<svg viewBox="1 1 46 46" fill="none" xmlns="http://www.w3.org/2000/svg"><defs><path id="a" d="M3 22a1 1 0 0 1 1-1h18a1 1 0 0 1 1 1v4a1 1 0 1 1-2 0v-3h-7v20h2a1 1 0 1 1 0 2h-6a1 1 0 1 1 0-2h2V23H5v3a1 1 0 1 1-2 0z"/></defs><mask id="b"><path d="M0 0h46v46h-92" fill="#fff"/><use href="#a" fill="#000" stroke="#000" stroke-width="9" stroke-linejoin="round"/></mask><path mask="url(#b)" d="M6.5 5.25a1.25 1.25 0 1 1 2.5 0v37.5a1.25 1.25 0 1 1-2.5 0zM15.75 26a4.25 4.25 0 0 0-4.25 4.25v5.5A4.25 4.25 0 0 0 15.75 40h15A4.25 4.25 0 0 0 35 35.75v-5.5A4.25 4.25 0 0 0 30.75 26zM14 30.25c0-.966.784-1.75 1.75-1.75h15c.966 0 1.75.784 1.75 1.75v5.5a1.75 1.75 0 0 1-1.75 1.75h-15A1.75 1.75 0 0 1 14 35.75zm-2.5-18v5.5A4.25 4.25 0 0 0 15.75 22H38a4.25 4.25 0 0 0 4.25-4.25v-5.5A4.25 4.25 0 0 0 38 8H15.75a4.25 4.25 0 0 0-4.25 4.25" fill="#afafaf"/><use href="#a" fill="#afafaf" stroke="#afafaf"/></svg>
