<!--Collection: "Fluent System", Author: Microsoft-->
<!--Author: Freepix-->
<svg xmlns="http://www.w3.org/2000/svg" viewBox="0 0 46 46" fill="none"><defs><path id="a" d="M3 22a1 1 0 0 1 1-1h18a1 1 0 0 1 1 1v4a1 1 0 1 1-2 0v-3h-7v20h2a1 1 0 1 1 0 2h-6a1 1 0 1 1 0-2h2V23H5v3a1 1 0 1 1-2 0z"/></defs><mask id="b" fill="#000"><path d="M0 0h46v46H0" fill="#fff"/><use href="#a" stroke="#000" stroke-width="9" stroke-linejoin="round"/></mask><path mask="url(#b)" fill="#afafaf" d="M12 12h22v22H12Zm21 24h6v3h-6Zm-9 0h6v3h-6Zm-8.5 0h6v3h-6ZM7 36h6v3H7ZM33 7h6v3h-6Zm-9 0h6v3h-6Zm-8.5 0h6v3h-6ZM7 7h6v3H7ZM0 7h5v3H0v2h9v22H0v2h5v3H0v2h46v-2h-5v-3h5v-2h-9V12h9v-2h-5V7h5V5H0Z"/><use href="#a" fill="#afafaf" stroke="#afafaf"/></svg>
