<!--Collection: "Fluent System", Author: Microsoft-->
<svg viewBox="0 0 48 48" fill="none" xmlns="http://www.w3.org/2000/svg"><path d="M24.254 16.345a7.909 7.909 0 1 0 0 15.818 7.909 7.909 0 0 0 0-15.818m-5.272 7.91a5.273 5.273 0 1 1 10.545 0 5.273 5.273 0 0 1-10.545 0m.521 20.53c1.559.371 3.156.56 4.76.56a20.5 20.5 0 0 0 4.748-.564 2.05 2.05 0 0 0 1.554-1.763l.357-3.239a2.445 2.445 0 0 1 2.302-2.188c.386-.017.771.056 1.126.211l2.96 1.298a2.03 2.03 0 0 0 1.639.01c.26-.11.493-.275.685-.482a21.5 21.5 0 0 0 4.756-8.204 2.05 2.05 0 0 0-.738-2.249l-2.63-1.94a2.453 2.453 0 0 1 0-3.97l2.622-1.936a2.05 2.05 0 0 0 .738-2.254 21.4 21.4 0 0 0-4.762-8.201 2.04 2.04 0 0 0-2.311-.475l-2.96 1.304c-.306.138-.639.21-.976.21a2.465 2.465 0 0 1-2.447-2.201l-.359-3.227a2.04 2.04 0 0 0-1.582-1.773 23 23 0 0 0-4.711-.547 23 23 0 0 0-4.746.548 2.04 2.04 0 0 0-1.581 1.768l-.36 3.23a2.47 2.47 0 0 1-.809 1.569 2.66 2.66 0 0 1-1.654.632c-.336 0-.667-.07-.974-.204l-2.953-1.304a2.04 2.04 0 0 0-2.32.477 21.5 21.5 0 0 0-4.757 8.2 2.05 2.05 0 0 0 .739 2.253l2.624 1.936a2.47 2.47 0 0 1 .74 3.098 2.5 2.5 0 0 1-.74.874l-2.625 1.94a2.05 2.05 0 0 0-.739 2.251 21.44 21.44 0 0 0 4.756 8.206 2.04 2.04 0 0 0 2.313.479l2.973-1.304c.306-.136.638-.205.973-.205h.008a2.466 2.466 0 0 1 2.447 2.187l.356 3.224a2.05 2.05 0 0 0 1.558 1.764m8.504-2.474c-2.468.528-5.02.528-7.487 0l-.321-2.807a5.1 5.1 0 0 0-5.062-4.534h-.01a5 5 0 0 0-2.031.421l-2.58 1.132a18.8 18.8 0 0 1-3.755-6.482l2.284-1.688a5.104 5.104 0 0 0 0-8.216L6.763 18.45a18.8 18.8 0 0 1 3.755-6.475l2.565 1.13a5 5 0 0 0 2.036.43h.01a5.113 5.113 0 0 0 5.073-4.547l.316-2.805a20.4 20.4 0 0 1 3.757-.397c1.252.016 2.5.149 3.727.396l.316 2.804a5.1 5.1 0 0 0 5.062 4.549 4.6 4.6 0 0 0 2.052-.432l2.562-1.13a18.8 18.8 0 0 1 3.757 6.476l-2.275 1.68a5.09 5.09 0 0 0 0 8.226l2.283 1.687a18.9 18.9 0 0 1-3.754 6.475l-2.574-1.129a5.08 5.08 0 0 0-7.115 4.113z" fill="#afafaf"/></svg>
